<svg width="25" height="27" viewBox="0 0 25 27" fill="none" xmlns="http://www.w3.org/2000/svg">
<path d="M8.72461 0.214735C8.66491 0.341838 8.60521 0.453052 8.58282 0.476884C8.56043 0.500716 8.31416 1.01707 8.03058 1.62875C7.73953 2.24044 7.49327 2.75679 7.47088 2.78062C7.44103 2.80445 7.08282 3.5353 6.66491 4.40913L5.91118 5.99791L4.4261 6.80819C3.61267 7.25305 2.33655 7.95212 1.58282 8.35726L0.224609 9.09604L0.239535 13.0203L0.261923 16.9367L0.709684 17.1909C0.955953 17.3339 1.57536 17.6834 2.09028 17.9773C2.60521 18.2633 3.37386 18.7002 3.8067 18.9465C4.23953 19.1848 4.8664 19.5344 5.20222 19.7171C5.59028 19.9316 5.84401 20.1222 5.91118 20.2493C5.96342 20.3605 6.12759 20.6862 6.27685 20.9722C6.4261 21.2582 6.67983 21.7587 6.84401 22.0844C7.00819 22.4101 7.20968 22.8073 7.29177 22.9582C7.57536 23.4984 7.89625 24.118 8.15745 24.6264C8.29924 24.9124 8.51565 25.3414 8.64252 25.5797L8.8664 26.0166H12.5754H16.2918L16.65 25.2937C16.844 24.8965 17.1425 24.2848 17.3216 23.9432C17.65 23.2839 18.3142 21.9414 18.844 20.8292C19.0157 20.4638 19.2246 20.1222 19.2992 20.0666C19.456 19.9474 23.6724 17.5802 24.3813 17.2068L24.844 16.9605L24.8515 13.0601C24.8515 10.0255 24.8291 9.13576 24.7619 9.07221C24.7097 9.03249 24.0306 8.64324 23.247 8.21427C22.4709 7.78529 21.2619 7.12595 20.5754 6.75258C19.65 6.24417 19.2843 5.99791 19.1873 5.83109C19.1127 5.70399 18.8365 5.1638 18.5754 4.62361C17.8813 3.21754 17.5306 2.51847 17.1276 1.70819C16.9261 1.311 16.6574 0.778753 16.5231 0.516604L16.2918 0.0399684L12.5604 0.0161366L8.82909 0.000248771L8.72461 0.214735ZM13.956 1.16006C13.956 1.22361 4.59774 11.1932 4.56789 11.1615C4.55297 11.1456 4.73207 10.7643 4.97088 10.3115C5.20222 9.85866 5.47088 9.35025 5.56043 9.17548C5.64998 9.00072 6.00073 8.31754 6.34401 7.66614C6.6873 7.00679 7.1873 6.04558 7.46342 5.52128C7.73953 4.99698 8.23953 4.02782 8.58282 3.37642C8.9261 2.71707 9.31416 1.97034 9.44849 1.70819L9.69476 1.23156L10.4261 1.18389C11.4783 1.12034 13.956 1.10445 13.956 1.16006ZM15.4485 5.26707C15.9634 5.56894 17.0231 6.19651 17.7992 6.65726C18.5828 7.11006 19.8216 7.84885 20.5604 8.28576C21.2992 8.71473 22.2992 9.30258 22.7843 9.58857L23.6574 10.1049V12.361C23.6574 13.6002 23.65 14.6171 23.6351 14.6171C23.6276 14.6171 21.4858 12.3451 18.8813 9.56473C16.2768 6.78436 14.2246 4.56006 14.3291 4.61567C14.4336 4.67128 14.9336 4.9652 15.4485 5.26707ZM16.3739 8.85772L20.2395 13.0362L16.3365 17.1591L12.4261 21.29L8.56043 17.175C6.44103 14.9189 4.70968 13.0362 4.72461 13.0045C4.73207 12.9647 12.4783 4.68716 12.5007 4.68716C12.5007 4.68716 14.247 6.56193 16.3739 8.85772ZM10.1873 20.7259C10.553 21.1231 10.8365 21.4488 10.8142 21.4488C10.7843 21.4488 9.79924 20.8689 8.61267 20.1619C5.65745 18.4063 4.29924 17.596 2.70968 16.6587L1.34401 15.8484V13.632V11.4236L5.43356 15.7133C7.67983 18.0727 9.81416 20.3288 10.1873 20.7259ZM20.2395 15.2685C20.0231 15.6974 19.7992 16.1185 17.6873 20.1381C17.0231 21.4012 16.2097 22.9661 15.8739 23.6016L15.2768 24.7615L14.1127 24.8091C13.4709 24.8409 12.4933 24.8647 11.941 24.8647H10.9336L15.6351 19.8601C18.2171 17.1035 20.3589 14.8554 20.3963 14.8554C20.4261 14.8554 20.3515 15.046 20.2395 15.2685Z" fill="#EC1515"/>
<path d="M10.4411 1.24734L9.72468 1.27911L9.39632 1.92257C8.91125 2.87584 8.73214 3.22537 7.43364 5.71977C6.78438 6.96696 6.15005 8.18238 6.02319 8.4207C5.90379 8.65902 5.65752 9.12771 5.48587 9.45341C4.57543 11.1693 4.48587 11.2249 7.02319 8.50014C8.30677 7.12584 10.3814 4.91743 11.6351 3.59874L13.9187 1.19967L12.5381 1.20762C11.7769 1.21556 10.8366 1.23939 10.4411 1.24734Z" fill="#ECEC15"/>
<path d="M18.9936 9.61221C21.4936 12.2734 23.5533 14.458 23.5608 14.458C23.5757 14.458 23.5832 13.4809 23.5832 12.2893V10.1286L21.7026 9.02436C20.6653 8.41268 19.225 7.57062 18.5086 7.1496C17.7922 6.72062 16.5832 6.01362 15.822 5.56876L14.4414 4.75847L18.9936 9.61221Z" fill="#ECEC15"/>
<path d="M1.40325 13.672L1.42564 15.801L1.66444 15.9519C1.79877 16.0393 2.02265 16.1823 2.16444 16.2617C2.30623 16.3491 2.62713 16.5398 2.8734 16.6828C3.41817 17.0005 7.50026 19.4314 8.02265 19.7412C8.23161 19.8683 8.80623 20.2099 9.31369 20.5038C9.81369 20.8057 10.3212 21.1075 10.4331 21.187C10.7241 21.3776 10.0077 20.6071 5.44802 15.8089L1.38086 11.5351L1.40325 13.672Z" fill="#ECEC15"/>
<path d="M15.6716 19.8996L11.082 24.7852H13.1343H15.1865L15.5298 24.1258C15.7164 23.7683 16.2164 22.8151 16.6417 22.0048C17.0671 21.1945 17.6343 20.1062 17.9104 19.5819C18.179 19.0576 18.791 17.8978 19.2686 17.0001C20.2387 15.1651 20.3134 15.0141 20.2835 15.0141C20.2686 15.0141 18.194 17.2146 15.6716 19.8996Z" fill="#ECEC15"/>
</svg>
